<?xml version="1.0" encoding="UTF-8" standalone="no"?>
<!-- Created with Inkscape (http://www.inkscape.org/) -->

<svg
   width="14.042mm"
   height="5.3959999mm"
   viewBox="0 0 14.041999 5.3959999"
   version="1.1"
   id="svg5"
   inkscape:version="1.2.1 (9c6d41e410, 2022-07-14)"
   sodipodi:docname="arise-logo_flattened.svg"
   inkscape:export-filename="arise-logo-transparent.png"
   inkscape:export-xdpi="542.65778"
   inkscape:export-ydpi="542.65778"
   xmlns:inkscape="http://www.inkscape.org/namespaces/inkscape"
   xmlns:sodipodi="http://sodipodi.sourceforge.net/DTD/sodipodi-0.dtd"
   xmlns="http://www.w3.org/2000/svg"
   xmlns:svg="http://www.w3.org/2000/svg">
  <sodipodi:namedview
     id="namedview7"
     pagecolor="#ffffff"
     bordercolor="#000000"
     borderopacity="0.25"
     inkscape:showpageshadow="2"
     inkscape:pageopacity="0.0"
     inkscape:pagecheckerboard="0"
     inkscape:deskcolor="#d1d1d1"
     inkscape:document-units="mm"
     showgrid="false"
     inkscape:zoom="13.516172"
     inkscape:cx="39.471234"
     inkscape:cy="6.1407918"
     inkscape:window-width="3440"
     inkscape:window-height="1369"
     inkscape:window-x="-8"
     inkscape:window-y="-8"
     inkscape:window-maximized="1"
     inkscape:current-layer="g1560" />
  <defs
     id="defs2">
    <rect
       x="29.511229"
       y="241.55487"
       width="703.89746"
       height="247.01991"
       id="rect176" />
    <rect
       x="29.511229"
       y="241.55487"
       width="703.89746"
       height="247.01991"
       id="rect440" />
    <rect
       x="29.511229"
       y="241.55487"
       width="703.89746"
       height="247.01991"
       id="rect475" />
    <rect
       x="29.511229"
       y="241.55487"
       width="703.89746"
       height="247.01991"
       id="rect542" />
    <rect
       x="29.511229"
       y="241.55487"
       width="703.89746"
       height="247.01991"
       id="rect544" />
    <rect
       x="29.511229"
       y="241.55487"
       width="703.89746"
       height="247.01991"
       id="rect546" />
    <rect
       x="29.511229"
       y="241.55487"
       width="703.89746"
       height="247.01991"
       id="rect552" />
    <rect
       x="29.511229"
       y="241.55487"
       width="703.89746"
       height="247.01991"
       id="rect558" />
    <rect
       x="29.511229"
       y="241.55487"
       width="703.89746"
       height="247.01991"
       id="rect688" />
    <rect
       x="29.511229"
       y="241.55487"
       width="703.89746"
       height="247.01991"
       id="rect690" />
    <rect
       x="29.511229"
       y="241.55487"
       width="703.89746"
       height="247.01991"
       id="rect692" />
    <rect
       x="29.511229"
       y="241.55487"
       width="703.89746"
       height="247.01991"
       id="rect797" />
    <rect
       x="29.511229"
       y="241.55487"
       width="703.89746"
       height="247.01991"
       id="rect799" />
    <rect
       x="29.511229"
       y="241.55487"
       width="703.89746"
       height="247.01991"
       id="rect801" />
    <rect
       x="29.511229"
       y="241.55487"
       width="703.89746"
       height="247.01991"
       id="rect936" />
    <rect
       x="29.511229"
       y="241.55487"
       width="703.89746"
       height="247.01991"
       id="rect938" />
    <rect
       x="29.511229"
       y="241.55487"
       width="703.89746"
       height="247.01991"
       id="rect940" />
    <rect
       x="29.511229"
       y="241.55487"
       width="703.89746"
       height="247.01991"
       id="rect1088" />
    <rect
       x="29.511229"
       y="241.55487"
       width="703.89746"
       height="247.01991"
       id="rect1090" />
    <rect
       x="29.511229"
       y="241.55487"
       width="703.89746"
       height="247.01991"
       id="rect1092" />
    <rect
       x="29.511229"
       y="241.55487"
       width="703.89746"
       height="247.01991"
       id="rect1562" />
    <rect
       x="29.511229"
       y="241.55487"
       width="703.89746"
       height="247.01991"
       id="rect1564" />
    <rect
       x="29.511229"
       y="241.55487"
       width="703.89746"
       height="247.01991"
       id="rect1566" />
  </defs>
  <g
     inkscape:groupmode="layer"
     id="layer2"
     inkscape:label="BG"
     style="display:none"
     transform="translate(-9.2390895,-64.757885)">
    <rect
       style="display:inline;fill:#000000;fill-opacity:1;stroke-width:0.0412021"
       id="rect1828"
       width="17.772917"
       height="8.028266"
       x="7.9025664"
       y="63.659115"
       inkscape:label="Background" />
  </g>
  <g
     inkscape:label="ARISE"
     inkscape:groupmode="layer"
     id="g1560"
     style="display:inline;fill:#65f85a;fill-opacity:1;stroke:#112b26;stroke-width:0.2;stroke-dasharray:none;stroke-opacity:1"
     transform="translate(-6.5038345,-63.220897)">
    <g
       aria-label="  e"
       transform="scale(0.9306992,1.074461)"
       id="text1550"
       style="font-size:6.06473px;font-family:'ROBOTECH GP';-inkscape-font-specification:'ROBOTECH GP';letter-spacing:-0.284284px;display:inline"
       inkscape:label="E">
      <path
         d="m 20.745521,62.164173 v 0.642601 H 18.494938 V 62.164173 Z M 20.567843,60.98854 v 0.633717 H 18.494938 V 60.98854 Z m 0.325743,-1.137137 -0.325743,0.645562 h -2.072905 v -0.645562 z"
         id="path6851" />
    </g>
    <g
       aria-label="$"
       transform="scale(0.88753215,1.1267197)"
       id="text1558"
       style="font-size:5.76972px;font-family:'ROBOTECH GP';-inkscape-font-specification:'ROBOTECH GP';letter-spacing:-0.29811px;display:inline"
       inkscape:label="S">
      <path
         d="m 17.968538,58.172708 h 0.152132 q 0.743753,0.123958 0.749387,0.774742 v 0.07888 q -0.0056,0.774743 -0.743753,0.864895 h -0.157766 v 0.476114 h -0.704311 v -0.476114 h -0.926874 l 0.278907,-0.608525 h 0.647967 V 58.764329 H 17.08674 Q 16.342987,58.64037 16.337353,57.992404 v -0.07888 q 0.0056,-0.743753 0.743753,-0.836722 h 0.183121 v -0.433856 h 0.704311 v 0.433856 h 0.904336 l -0.284541,0.605708 h -0.619795 z m -0.704311,-0.490201 h -0.01972 q -0.208476,0.03099 -0.205659,0.259186 0,0.202842 0.22538,0.231015 z m 0.704311,1.597378 q 0.200025,-0.04226 0.200025,-0.270455 0,-0.191573 -0.200025,-0.239466 z"
         id="path6854" />
    </g>
    <g
       aria-label="  I"
       transform="matrix(0.26458333,0,0,0.26458333,2.7456913,0)"
       id="text1546"
       style="white-space:pre;shape-inside:url(#rect1566);display:inline;stroke-width:0.755906"
       inkscape:label="I">
      <path
         d="m 42.591737,255.05469 v -12 h -2.268 v 12 z"
         style="font-weight:bold;font-family:Woodwarrior;-inkscape-font-specification:'Woodwarrior Bold'"
         id="path6857" />
    </g>
    <g
       aria-label="  R"
       transform="scale(0.26458333)"
       id="text1542"
       style="white-space:pre;shape-inside:url(#rect1564);display:inline;stroke-width:0.755906"
       inkscape:label="R">
      <path
         d="m 44.547737,245.23869 c 1.344,0 2.424,1.092 2.424,2.46 0,0.876 -0.468,1.656 -1.152,2.088 l -2.856,-4.548 z m 2.424,6.384 c 1.296,-0.816 2.148,-2.268 2.148,-3.924 0,-2.568 -2.052,-4.644 -4.572,-4.644 h -4.236 v 1.992 l 3.204,5.112 h -3.204 v 4.896 h 2.148 v -2.712 h 2.412 l 1.716,2.712 h 2.532 z"
         style="font-weight:bold;font-family:Woodwarrior;-inkscape-font-specification:'Woodwarrior Bold'"
         id="path6860" />
    </g>
    <g
       aria-label="A"
       transform="matrix(-0.26458333,0,0,0.26458333,18.107909,0)"
       id="text1534"
       style="white-space:pre;shape-inside:url(#rect1562);display:inline;stroke-width:0.755906"
       inkscape:label="A">
      <path
         d="m 33.015719,249.05469 -1.344,1.98 v -3.96 z m 6.684,6 -8.136,-12 h -2.052 v 12 h 2.052 l 2.76,-4.068 2.736,4.068 z"
         style="font-weight:bold;font-family:Woodwarrior;-inkscape-font-specification:'Woodwarrior Bold'"
         id="path6863" />
    </g>
  </g>
</svg>
