<?xml version="1.0" standalone="no"?>
<!DOCTYPE svg PUBLIC "-//W3C//DTD SVG 20010904//EN"
 "http://www.w3.org/TR/2001/REC-SVG-20010904/DTD/svg10.dtd">
<svg version="1.0" xmlns="http://www.w3.org/2000/svg"
 width="300.000000pt" height="300.000000pt" viewBox="0 0 300.000000 300.000000"
 preserveAspectRatio="xMidYMid meet">
<metadata>
Created by potrace 1.14, written by Peter Selinger 2001-2017
</metadata>
<g transform="translate(0.000000,300.000000) scale(0.100000,-0.100000)"
fill="#000000" stroke="none">
<path d="M610 2985 c-304 -65 -532 -294 -594 -597 -24 -116 -24 -1660 0 -1776
62 -305 291 -534 596 -596 116 -24 1660 -24 1776 0 305 62 534 291 596 596 24
116 24 1660 0 1776 -62 305 -291 534 -596 596 -67 14 -186 16 -895 15 -657 0
-831 -3 -883 -14z m340 -645 l0 -120 180 0 c99 0 180 -1 180 -2 0 -2 -18 -50
-39 -108 l-39 -105 -141 -3 -141 -3 0 -183 0 -183 63 -6 c131 -11 237 -77 285
-179 45 -98 47 -331 2 -450 -44 -118 -141 -187 -276 -196 l-74 -5 0 -128 0
-129 -105 0 -105 0 0 130 0 130 -185 0 c-135 0 -185 3 -185 12 0 6 16 56 36
109 l36 98 147 3 146 3 3 191 2 191 -73 5 c-138 9 -256 87 -298 198 -16 39
-23 86 -27 163 -13 286 87 431 308 446 l85 6 3 118 3 117 104 0 105 0 0 -120z
m1649 -127 c0 -5 -21 -55 -47 -113 l-48 -105 -427 -3 -427 -2 0 115 0 115 475
0 c261 0 475 -3 474 -7z m-111 -690 l3 -113 -421 0 -420 0 0 115 0 115 418 -2
417 -3 3 -112z m82 -608 l0 -115 -460 0 -460 0 0 115 0 115 460 0 460 0 0
-115z"/>
<path d="M610 1962 c-44 -44 -64 -104 -58 -172 10 -96 58 -150 146 -165 l42
-7 0 191 0 191 -46 0 c-40 0 -51 -5 -84 -38z"/>
<path d="M950 1217 l0 -205 38 10 c89 25 131 88 132 199 0 108 -46 171 -142
194 l-28 7 0 -205z"/>
</g>
</svg>
